<svg role="img" width="4.896pt" height="4.896pt" viewBox="0 0 4.95 4.95" xmlns="http://www.w3.org/2000/svg">
    
    <style>
        @media (prefers-color-scheme: dark) {
            :root {
                filter: invert(100%);
            }
        }
    </style>
    
    <defs/>
    
    <path id="shape0" transform="matrix(0.144000002692728 0 0 0.144000002692728 0.652148170507318 2.88002107646065e-09)" fill="#8257e6" stroke="#ffffff" stroke-width="0.18" stroke-linecap="square" stroke-linejoin="bevel" d="M22.9059 0.661562L18.4157 0.00696482C18.2828 -0.019219 18.15 0.0331455 18.0968 0.0855133L16.1838 2.5468C16.051 2.7039 16.0244 2.91337 16.0775 3.09666C16.1307 3.27995 15.9713 3.43705 15.7853 3.41087L14.2177 3.07047C13.9785 3.01811 13.7128 3.09666 13.5534 3.30614L7.33609 11.1613C7.22989 11.3184 7.01729 11.3708 6.83129 11.2922L4.46661 10.2449C4.25405 10.1401 4.01493 10.1663 3.82894 10.2972L2.63331 11.1089C2.44732 11.2398 2.18162 11.266 1.96906 11.1613L1.38453 10.8733C1.01256 10.69 0.560883 10.8995 0.454603 11.2922L0.0294833 13.1513C-0.0767967 13.5964 0.109193 14.0415 0.507743 14.2772L1.4111 14.827L4.30719 16.5814L5.71539 17.4454C6.11389 17.6811 6.61879 17.6287 6.96419 17.3407L9.32889 15.2984C9.51479 15.1412 9.80709 15.0889 10.0197 15.2198L10.737 15.5864C10.9762 15.7173 11.2684 15.6649 11.4544 15.4816L12.6501 14.3819C12.836 14.1986 13.1283 14.1724 13.3409 14.2772L15.121 15.0889C15.3867 15.2198 15.7056 15.1412 15.8916 14.9056L16.7152 13.8582L22.9591 5.97689C23.2513 5.61031 23.0653 5.06045 22.5871 4.95572L21.2055 4.64151C20.9132 4.58914 20.7804 4.22257 20.9929 4.0131L23.1451 1.36852C23.3576 1.05432 23.2248 0.71393 22.9059 0.661562Z" />
    
    <path id="shape1" transform="matrix(0.144000002692728 0 0 0.144000002692728 0.953015421734955 2.37676455801021)" fill="#8257e6" stroke="#ffffff" stroke-width="0.18" stroke-linecap="square" stroke-linejoin="bevel" d="M0.224557 0.0236908C0.0917075 -0.0548092 -0.0411425 0.0760908 0.0119975 0.206991L0.676237 1.93509C0.729377 2.06599 0.729377 2.19699 0.702807 2.32789L0.118277 4.57969C0.0917075 4.73679 0.144847 4.89389 0.251127 4.97249L1.92501 6.25549C2.08443 6.36019 2.29699 6.36019 2.42983 6.22929L4.18344 4.71059C4.28974 4.63209 4.42254 4.57969 4.52884 4.55349L6.52154 4.34399C6.65444 4.31789 6.70754 4.13459 6.57474 4.05599Z" />
    
    <path id="shape2" transform="matrix(0.144000002692728 0 0 0.144000002692728 -2.36101280921894e-11 3.2057617488908)" fill="#8257e6" stroke="#ffffff" stroke-width="0.18" stroke-linecap="square" stroke-linejoin="bevel" d="M6.25834 0.079566C6.15206 0.00106605 5.99265 -0.025134 5.8598 0.027266L4.45161 0.707966C4.3719 0.734166 4.31876 0.812766 4.26562 0.891266L1.26326 8.19657C1.26326 8.22277 1.26326 8.22277 1.26326 8.24897C1.28983 8.27517 1.3164 8.30137 1.36953 8.30137L2.06035 8.03947C2.08692 8.03947 2.11348 8.03947 2.14005 8.03947C2.16662 8.06567 2.19319 8.11807 2.16662 8.14427L0.0144825 11.6267C-0.0386568 11.7053 0.0676241 11.7838 0.120763 11.7053L7.90566 4.00717C7.98537 3.92867 8.01194 3.85007 8.03851 3.74537L8.19793 1.75537C8.19793 1.62447 8.14479 1.51967 8.06508 1.44117Z" />
</svg>
