<?xml version="1.0" standalone="no"?>
<!DOCTYPE svg PUBLIC "-//W3C//DTD SVG 20010904//EN"
 "http://www.w3.org/TR/2001/REC-SVG-20010904/DTD/svg10.dtd">
<svg version="1.0" xmlns="http://www.w3.org/2000/svg"
 width="700.000000pt" height="700.000000pt" viewBox="0 0 700.000000 700.000000"
 preserveAspectRatio="xMidYMid meet">
<metadata>
Created by potrace 1.14, written by Peter Selinger 2001-2017
</metadata>
<g transform="translate(0.000000,700.000000) scale(0.100000,-0.100000)"
fill="#000000" stroke="none">
<path d="M4663 6983 c-11 -10 -51 -58 -89 -108 -38 -49 -71 -92 -74 -95 -6 -4
-58 -73 -115 -149 -11 -15 -44 -57 -73 -93 -65 -82 -82 -120 -72 -164 9 -41
-11 -74 -45 -74 -13 0 -97 16 -187 36 -173 38 -224 39 -260 7 -11 -10 -52 -58
-92 -108 -39 -49 -77 -97 -83 -105 -16 -19 -577 -728 -882 -1114 -130 -165
-247 -310 -260 -323 -13 -13 -36 -23 -52 -23 -16 0 -145 51 -286 114 -142 63
-269 116 -283 117 -42 5 -70 -9 -216 -108 -178 -120 -192 -123 -314 -63 -93
46 -137 52 -188 26 -54 -28 -58 -39 -122 -326 -12 -52 -24 -106 -28 -120 -14
-60 -6 -126 21 -173 29 -49 54 -66 430 -293 279 -169 412 -249 564 -342 178
-109 207 -122 268 -122 46 0 117 27 151 58 23 20 137 119 178 153 16 13 41 35
56 49 15 14 51 45 81 70 29 25 71 61 93 80 23 19 45 38 51 43 5 4 21 16 34 27
40 33 87 26 197 -30 139 -70 173 -68 260 15 93 89 221 202 240 213 48 26 85
16 299 -82 116 -53 220 -96 233 -96 56 0 87 27 212 186 68 87 127 161 130 164
3 3 55 68 115 145 60 77 148 188 195 247 71 88 298 375 382 482 13 16 50 63
84 105 265 331 448 569 460 597 26 62 -4 139 -63 162 -27 11 -179 49 -233 58
-95 17 -126 33 -141 71 -13 34 2 63 87 165 42 51 84 102 93 113 9 11 63 79
121 150 58 72 107 132 110 135 49 43 78 125 59 162 -18 34 -43 42 -204 63 -49
7 -85 12 -135 20 -24 4 -274 40 -350 50 -20 3 -45 7 -55 9 -11 2 -45 7 -75 11
-193 27 -205 28 -227 8z"/>
<path d="M1368 3583 c-3 -10 15 -70 39 -133 104 -272 105 -273 99 -315 -3 -22
-30 -137 -61 -255 -31 -118 -57 -227 -57 -242 -1 -37 13 -51 169 -171 263
-201 253 -198 359 -102 12 10 63 55 228 198 117 101 122 103 341 121 27 3 87
9 193 21 72 9 71 40 -3 89 -30 20 -57 36 -60 36 -3 0 -11 5 -18 11 -7 6 -129
84 -272 175 -143 91 -289 183 -325 206 -36 22 -108 68 -161 102 -52 34 -103
66 -112 71 -31 18 -252 159 -286 182 -40 27 -67 29 -73 6z"/>
<path d="M1060 2339 c-91 -44 -169 -88 -175 -97 -9 -16 -160 -379 -301 -727
-36 -88 -71 -173 -79 -190 -46 -104 -245 -598 -245 -607 0 -13 51 -4 93 17 35
17 97 30 97 20 0 -4 -10 -24 -22 -44 -13 -19 -27 -44 -33 -53 -5 -10 -59 -97
-120 -194 -60 -98 -120 -194 -131 -213 -12 -20 -49 -81 -83 -135 -36 -58 -58
-103 -53 -108 9 -9 33 14 1031 1001 417 412 603 603 610 625 5 17 12 74 16
126 3 52 8 120 12 150 3 30 6 85 7 121 0 71 -2 76 -64 119 -19 13 -37 27 -40
30 -3 3 -70 54 -149 114 -129 96 -176 126 -200 126 -4 0 -81 -36 -171 -81z"/>
</g>
</svg>
